# xmcd CD database file
#
# Track frame offsets:
#	151
#	18557
#	38113
#	54745
#	75931
#	91290
#	118334
#	138463
#	170539
#	189919
#	211403
#	233974
#	251367
#	286474
#
# Disc length: 4188 seconds
#
# Revision: 0
# Processed by: cddbd v1.4PL0 Copyright (c) Steve Scherf et al.
# Submitted via: CDex 1.51
#
DISCID=c0105a0e
DTITLE=George miller and Chris Noonan - Jazz Pub
DYEAR=1900
DGENRE=Jazz
TTITLE0=Serenade
TTITLE1=No Matter when and where
TTITLE2=Just like heart
TTITLE3=Revived Love
TTITLE4=Sore Heart
TTITLE5=My main man
TTITLE6=Hopping Alone
TTITLE7=Not my business
TTITLE8=Melody
TTITLE9=Only at night
TTITLE10=Come to sleep
TTITLE11=Shoddy dancing
TTITLE12=Pat
TTITLE13=The charming Seacoast
EXTD=
EXTT0=
EXTT1=
EXTT2=
EXTT3=
EXTT4=
EXTT5=
EXTT6=
EXTT7=
EXTT8=
EXTT9=
EXTT10=
EXTT11=
EXTT12=
EXTT13=
PLAYORDER=
